<?xml version="1.0" encoding="iso-8859-1"?>
<!-- Generator: Adobe Illustrator 16.0.0, SVG Export Plug-In . SVG Version: 6.00 Build 0)  -->
<!DOCTYPE svg PUBLIC "-//W3C//DTD SVG 1.1//EN" "http://www.w3.org/Graphics/SVG/1.1/DTD/svg11.dtd">
<svg version="1.1" id="Layer_1" xmlns="http://www.w3.org/2000/svg" xmlns:xlink="http://www.w3.org/1999/xlink" x="0px" y="0px"
	 width="25.895px" height="26.464px" viewBox="152.61 139.743 25.895 26.464"
	 style="enable-background:new 152.61 139.743 25.895 26.464;" xml:space="preserve">
<path style="fill:none;stroke:#767676;stroke-width:8;stroke-linecap:round;stroke-linejoin:round;stroke-miterlimit:10;" d="
	M167.258,156.268c0,0.277-0.223,0.5-0.5,0.5h-2.4c-0.277,0-0.5-0.223-0.5-0.5v-2.247c0-0.277,0.223-0.5,0.5-0.5h1.2h1.2
	c0.277,0,0.5,0.223,0.5,0.5V156.268z"/>
<path style="fill:none;stroke:#767676;stroke-width:8;stroke-linecap:round;stroke-linejoin:round;stroke-miterlimit:10;" d="
	M173.751,153.444v8.301c0,0.254-0.208,0.461-0.462,0.461h-15.471c-0.254,0-0.461-0.208-0.461-0.461v-8.147"/>
<path style="fill:none;stroke:#767676;stroke-width:8;stroke-linecap:round;stroke-linejoin:round;stroke-miterlimit:10;" d="
	M161.85,145.912l0.885-1.785c0.123-0.231,0.361-0.385,0.639-0.385h4.354c0.277,0,0.523,0.154,0.638,0.385l0.885,1.785"/>
<path style="fill:none;stroke:#767676;stroke-width:8;stroke-linecap:round;stroke-linejoin:round;stroke-miterlimit:10;" d="
	M167.258,155.244l6.747-1.877c0.3-0.1,0.5-0.254,0.5-0.639v-6.354c0-0.277-0.223-0.5-0.5-0.5h-7.747h-1.393h-7.755
	c-0.277,0-0.5,0.223-0.5,0.5v6.354c0,0.385,0.2,0.539,0.5,0.639l6.747,1.877"/>
</svg>
